<svg xmlns="http://www.w3.org/2000/svg" x="0px" y="0px"
width="100" height="100"
viewBox="0 0 192 192"
style=" fill:#000000;"><g fill="none" fill-rule="nonzero" stroke="none" stroke-width="1" stroke-linecap="butt" stroke-linejoin="miter" stroke-miterlimit="10" stroke-dasharray="" stroke-dashoffset="0" font-family="none" font-weight="none" font-size="none" text-anchor="none" style="mix-blend-mode: normal"><path d="M0,192v-192h192v192z" fill="none"></path><g fill="#ffffff"><g id="surface1"><path d="M96,7.68c-48.735,0 -88.32,39.585 -88.32,88.32c0,48.735 39.585,88.32 88.32,88.32c48.735,0 88.32,-39.585 88.32,-88.32c0,-48.735 -39.585,-88.32 -88.32,-88.32zM96,15.36c44.58,0 80.64,36.06 80.64,80.64c0,44.58 -36.06,80.64 -80.64,80.64c-44.58,0 -80.64,-36.06 -80.64,-80.64c0,-44.58 36.06,-80.64 80.64,-80.64zM76.8,69.12l-26.88,26.88l26.88,26.88v-23.04h69.12v-7.68h-69.12z"></path></g></g></g></svg>